<?xml version="1.0" standalone="no"?>
<!DOCTYPE svg PUBLIC "-//W3C//DTD SVG 20010904//EN"
 "http://www.w3.org/TR/2001/REC-SVG-20010904/DTD/svg10.dtd">
<svg version="1.0" xmlns="http://www.w3.org/2000/svg"
 width="500.000000pt" height="500.000000pt" viewBox="0 0 500.000000 500.000000"
 preserveAspectRatio="xMidYMid meet">

<g transform="translate(0.000000,500.000000) scale(0.100000,-0.100000)"
fill="#000000" stroke="none">
<path d="M2335 4095 c-190 -22 -330 -59 -485 -130 -297 -135 -553 -362 -711
-630 -264 -447 -300 -965 -101 -1441 121 -289 351 -557 625 -728 l79 -48 111
12 c62 7 119 16 128 21 13 6 18 31 23 107 l7 99 69 68 c60 60 72 67 99 63 23
-3 32 0 37 14 3 10 17 31 30 48 33 39 48 138 33 218 -5 31 -13 80 -17 107 -5
28 -21 97 -37 155 l-30 105 -92 90 c-99 97 -123 137 -144 245 -9 46 -14 58
-21 46 -18 -33 -29 -16 -22 37 8 59 38 133 88 216 19 31 40 69 45 84 l11 27
-95 0 c-94 0 -95 0 -95 -24 0 -34 -18 -78 -29 -71 -5 3 -13 -5 -17 -17 -6 -18
-10 -10 -15 35 -5 43 -13 65 -33 86 -25 26 -33 65 -18 87 4 6 41 33 82 61 41
28 84 61 95 73 11 12 37 31 57 41 25 13 40 28 44 47 31 140 135 277 252 333
33 15 72 24 128 27 72 4 89 1 135 -20 60 -27 114 -69 131 -101 10 -20 10 -20
-23 2 -152 101 -283 84 -380 -49 -30 -42 -65 -121 -77 -178 l-10 -41 59 6 c67
7 75 -4 39 -49 l-19 -25 34 -32 c50 -45 66 -83 81 -194 22 -152 28 -159 145
-172 71 -8 143 -29 188 -56 199 -119 277 -142 567 -162 100 -7 225 -92 265
-180 13 -31 19 -65 19 -128 0 -47 -3 -88 -6 -91 -15 -16 -44 9 -63 54 -27 66
-52 64 -63 -7 -13 -88 -30 -149 -55 -199 -31 -60 -27 -99 17 -169 35 -56 37
-88 15 -219 -15 -94 -48 -183 -72 -192 -19 -8 -7 -26 17 -26 10 0 22 -10 26
-22 3 -12 13 -37 21 -55 l14 -34 52 41 c317 253 519 589 594 990 26 142 24
400 -4 550 -69 362 -251 681 -518 909 -273 233 -541 349 -895 386 -156 17
-167 17 -315 0z m-187 -1946 c18 -20 32 -42 32 -48 0 -7 -29 -30 -65 -53 -56
-34 -65 -44 -59 -62 15 -47 60 -135 98 -190 32 -45 41 -69 42 -103 1 -39 -3
-47 -35 -73 -62 -51 -85 -34 -83 60 1 25 -4 59 -10 75 -18 47 -72 126 -116
172 -55 55 -62 86 -32 138 43 74 86 160 93 184 6 23 7 23 55 -20 26 -24 63
-60 80 -80z"/>
<path d="M2463 1993 c-66 -96 -92 -208 -93 -399 0 -49 -4 -75 -14 -83 -11 -9
-29 -51 -23 -51 7 0 254 -43 342 -59 61 -12 146 -21 190 -21 l81 0 50 48 c62
59 89 121 82 187 -6 45 -18 67 -99 170 -34 44 -58 99 -47 110 2 2 27 -3 55
-11 45 -13 57 -23 99 -80 26 -35 50 -64 53 -64 3 0 21 -13 38 -28 l33 -27 -21
-80 c-25 -100 -85 -224 -113 -234 -14 -6 6 -10 59 -14 l80 -5 36 41 c70 79 88
189 40 255 -11 17 -40 41 -64 55 -38 23 -80 64 -157 155 -27 31 -83 51 -200
72 -94 17 -278 59 -372 86 -10 3 -23 -6 -35 -23z"/>
<path d="M2133 1363 c-49 -44 -53 -52 -58 -103 l-6 -55 23 55 c18 42 32 60 60
75 36 19 37 19 57 1 21 -19 21 -19 21 12 l0 32 93 1 c74 1 84 3 52 9 -22 4
-74 11 -115 15 l-75 6 -52 -48z"/>
</g>
</svg>
